<svg width="26" height="26" viewBox="0 0 26 26" fill="none" xmlns="http://www.w3.org/2000/svg">
<path fill-rule="evenodd" clip-rule="evenodd" d="M4.875 21.9375C4.65951 21.9375 4.45285 21.8519 4.30048 21.6995C4.1481 21.5472 4.0625 21.3405 4.0625 21.125V4.875C4.0625 4.65951 4.1481 4.45285 4.30048 4.30048C4.45285 4.1481 4.65951 4.0625 4.875 4.0625H19.9062C20.2295 4.0625 20.5395 3.9341 20.768 3.70554C20.9966 3.47698 21.125 3.16698 21.125 2.84375C21.125 2.52052 20.9966 2.21052 20.768 1.98196C20.5395 1.7534 20.2295 1.625 19.9062 1.625H4.875C4.01305 1.625 3.1864 1.96741 2.5769 2.5769C1.96741 3.1864 1.625 4.01305 1.625 4.875V21.125C1.625 21.987 1.96741 22.8136 2.5769 23.4231C3.1864 24.0326 4.01305 24.375 4.875 24.375H21.125C21.987 24.375 22.8136 24.0326 23.4231 23.4231C24.0326 22.8136 24.375 21.987 24.375 21.125V15.8438C24.375 15.5205 24.2466 15.2105 24.018 14.982C23.7895 14.7534 23.4795 14.625 23.1562 14.625C22.833 14.625 22.523 14.7534 22.2945 14.982C22.0659 15.2105 21.9375 15.5205 21.9375 15.8438V21.125C21.9375 21.3405 21.8519 21.5472 21.6995 21.6995C21.5472 21.8519 21.3405 21.9375 21.125 21.9375H4.875ZM25.6425 7.605C25.8578 7.37397 25.975 7.06839 25.9694 6.75265C25.9638 6.43691 25.8359 6.13566 25.6126 5.91236C25.3893 5.68907 25.0881 5.56116 24.7723 5.55559C24.4566 5.55002 24.151 5.66722 23.92 5.8825L14.8882 14.9126L11.8446 11.7666C11.7336 11.6506 11.6007 11.5577 11.4536 11.4931C11.3065 11.4286 11.1481 11.3938 10.9876 11.3908C10.827 11.3877 10.6674 11.4164 10.5179 11.4752C10.3685 11.534 10.2321 11.6217 10.1167 11.7334C10.0013 11.8451 9.90904 11.9785 9.84534 12.1259C9.78164 12.2733 9.7477 12.4319 9.74549 12.5925C9.74328 12.7531 9.77283 12.9125 9.83245 13.0617C9.89206 13.2108 9.98057 13.3467 10.0929 13.4615L13.9978 17.498C14.1101 17.6145 14.2445 17.7075 14.3932 17.7715C14.5419 17.8355 14.7019 17.8693 14.8637 17.8708C15.0256 17.8723 15.1861 17.8415 15.336 17.7803C15.4858 17.7191 15.622 17.6287 15.7365 17.5142L25.6425 7.605Z" fill="#009493"/>
</svg>
