<svg width="311" height="637" viewBox="0 0 311 637" fill="none" xmlns="http://www.w3.org/2000/svg">
<path d="M194.3 471.839C130.698 548.062 54.0903 599.687 -18.3309 621.555C-42.7628 628.933 -66.7105 632.922 -89.5189 633.331C-71.9841 631.678 -53.9125 628.041 -35.5824 622.505C37.0563 600.571 113.822 548.819 177.527 472.473C241.232 396.126 279.843 309.605 290.755 231.42C301.666 153.243 284.888 83.3243 237.698 40.3097C212.225 17.0899 180.523 4.11022 145.317 0.529455C187.322 1.14604 225.146 14.2394 254.565 41.0557C301.424 83.7688 318.19 153.302 307.305 231.288C296.422 309.266 257.901 395.617 194.3 471.839ZM-35.8715 621.548C-58.5708 628.403 -80.8521 632.332 -102.19 633.183C-103.501 633.128 -104.807 633.061 -106.109 632.981C-89.6573 631.193 -72.7528 627.678 -55.6225 622.505C17.0162 600.571 93.7823 548.819 157.487 472.473C221.192 396.126 259.803 309.605 270.715 231.42C281.626 153.243 264.848 83.3243 217.658 40.3097C193.03 17.8599 162.579 4.98227 128.768 0.916696C130.329 0.822314 131.887 0.744164 133.439 0.682307C173.179 2.34899 208.934 15.4428 237.025 41.0487C283.883 83.7617 300.649 153.295 289.765 231.281C278.882 309.259 240.36 395.61 176.759 471.832C113.158 548.055 36.5497 599.68 -35.8715 621.548ZM-55.9116 621.548C-70.7444 626.027 -85.3988 629.258 -99.7281 631.196C-92.7573 629.631 -85.7321 627.78 -78.6686 625.647C-6.02994 603.713 70.7362 551.961 134.441 475.615C198.146 399.268 236.757 312.747 247.669 234.562C258.58 156.385 241.802 86.4661 194.612 43.4515C169.429 20.4965 138.159 7.54934 103.434 3.79744C110.065 2.70136 116.634 1.87629 123.125 1.32643C158.971 4.5885 191.205 17.5498 216.985 41.0487C263.843 83.7617 280.609 153.295 269.725 231.281C258.842 309.259 220.32 395.61 156.719 471.832C93.1177 548.055 16.5096 599.68 -55.9116 621.548ZM-78.9577 624.69C-89.7208 627.94 -100.39 630.533 -110.909 632.451C-111.245 632.481 -111.581 632.51 -111.917 632.539C-115.201 632.24 -118.454 631.86 -121.676 631.397C-114.408 629.791 -107.08 627.873 -99.7107 625.647C-27.072 603.713 49.6941 551.961 113.399 475.615C177.104 399.268 215.715 312.747 226.627 234.562C237.537 156.385 220.759 86.4661 173.57 43.4515C151.3 23.1521 124.271 10.6789 94.3007 5.47004C96.1143 5.10578 97.9239 4.76131 99.7289 4.43672C135.715 7.64604 168.075 20.6151 193.938 44.1906C240.797 86.9036 257.563 156.437 246.679 234.423C235.796 312.401 197.274 398.752 133.673 474.974C70.0716 551.197 -6.5365 602.821 -78.9577 624.69ZM-124.434 631.993C-122.159 632.352 -119.867 632.671 -117.559 632.948C-118.666 633.015 -119.771 633.074 -120.874 633.125C-123.191 633.015 -125.495 632.865 -127.785 632.677C-126.67 632.456 -125.553 632.228 -124.434 631.993ZM-131.342 633.356C-131.333 633.357 -131.324 633.357 -131.315 633.358C-131.329 633.358 -131.342 633.358 -131.356 633.358C-131.351 633.357 -131.347 633.357 -131.342 633.356ZM-134.877 632.968C-135.5 633.075 -136.122 633.179 -136.745 633.281C-140.473 633.179 -144.168 632.978 -147.825 632.677C-146.344 632.384 -144.861 632.078 -143.375 631.759C-140.567 632.225 -137.734 632.628 -134.877 632.968ZM-151.382 633.356C-148.257 633.669 -145.105 633.909 -141.927 634.075C-149.532 635.161 -157.047 635.886 -164.452 636.243C-165.935 636.168 -167.414 636.078 -168.886 635.972C-163.103 635.311 -157.265 634.438 -151.382 633.356ZM-146.036 631.296C-147.836 631.666 -149.631 632.016 -151.422 632.347C-154.354 632.051 -157.26 631.689 -160.141 631.261C-157.989 630.781 -155.832 630.273 -153.67 629.738C-151.148 630.311 -148.603 630.831 -146.036 631.296ZM-162.848 631.852C-160.226 632.279 -157.582 632.651 -154.917 632.968C-161.406 634.077 -167.836 634.928 -174.193 635.516C-176.029 635.333 -177.855 635.125 -179.671 634.891C-174.106 634.069 -168.496 633.055 -162.848 631.852ZM-155.823 629.234C-158.179 629.8 -160.528 630.334 -162.871 630.835C-165.975 630.326 -169.047 629.74 -172.086 629.075C-169.496 628.409 -166.899 627.703 -164.297 626.96C-161.504 627.788 -158.679 628.546 -155.823 629.234ZM-174.232 629.618C-171.365 630.28 -168.468 630.871 -165.543 631.392C-171.503 632.606 -177.418 633.606 -183.279 634.389C-185.694 634.029 -188.09 633.623 -190.467 633.171C-185.09 632.16 -179.676 630.976 -174.232 629.618ZM-166.071 626.423C-168.801 627.188 -171.524 627.91 -174.239 628.59C-200.2 622.564 -223.662 610.762 -243.357 592.809C-290.215 550.096 -306.981 480.563 -296.097 402.577C-285.214 324.599 -246.692 238.248 -183.091 162.026C-119.49 85.8034 -42.8817 34.1786 29.5394 12.31C34.2655 10.8829 38.9734 9.58252 43.6585 8.41035C46.4553 9.0595 49.223 9.77568 51.9602 10.5594C51.0709 10.8193 50.1809 11.0837 49.2904 11.3527C-23.3482 33.2869 -100.114 85.0391 -163.819 161.385C-227.524 237.732 -266.135 324.253 -277.047 402.439C-287.958 480.615 -271.18 550.534 -223.99 593.548C-207.145 608.904 -187.576 619.781 -166.071 626.423ZM41.5054 7.92508C37.4354 8.97206 33.3493 10.1149 29.2503 11.3527C-43.3883 33.2869 -120.154 85.0391 -183.859 161.385C-247.564 237.732 -286.175 324.253 -297.087 402.439C-307.998 480.615 -291.22 550.534 -244.03 593.548C-224.673 611.193 -201.719 622.925 -176.363 629.113C-181.989 630.476 -187.581 631.653 -193.131 632.642C-220.745 626.941 -245.663 614.856 -266.403 595.951C-313.261 553.238 -330.027 483.705 -319.143 405.719C-308.26 327.741 -269.738 241.39 -206.137 165.168C-142.536 88.9453 -65.9279 37.3204 6.49326 15.4518C17.6178 12.0926 28.6419 9.43579 39.5038 7.49964C40.1726 7.6377 40.8398 7.77952 41.5054 7.92508ZM53.7562 10.0402C51.1262 9.26013 48.4678 8.54265 45.7825 7.88736C48.3064 7.27589 50.8234 6.7018 53.3328 6.16529C56.2519 6.64384 59.1431 7.19102 62.0049 7.80731C59.2624 8.50814 56.5125 9.25255 53.7562 10.0402ZM64.172 7.26222C61.4753 6.64911 58.7524 6.09776 56.0045 5.60772C57.6471 5.2733 59.2864 4.95508 60.922 4.65314C64.057 4.97003 67.1637 5.36177 70.2403 5.82892C68.2219 6.28269 66.199 6.7605 64.172 7.26222ZM72.9142 5.24125C70.5656 4.85121 68.1992 4.50547 65.8159 4.20376C67.5313 4.08281 69.2411 3.98129 70.945 3.89928C73.097 4.00683 75.2371 4.14813 77.3647 4.32333C75.8838 4.61616 74.4003 4.92215 72.9142 5.24125ZM80.9216 3.64432C80.9153 3.64369 80.9091 3.64306 80.9028 3.64244C80.9127 3.64241 80.9225 3.64238 80.9323 3.64235C80.9287 3.64301 80.9252 3.64366 80.9216 3.64432ZM86.4581 3.69767C89.6336 3.771 92.7848 3.91615 95.9097 4.13366C94.4606 4.41462 93.0089 4.70821 91.5547 5.01439C89.2059 4.64299 86.8396 4.31558 84.4566 4.03189C85.1244 3.91775 85.7916 3.80633 86.4581 3.69767ZM75.5757 5.70361C77.3753 5.33399 79.1709 4.98381 80.9621 4.65314C83.5936 4.91914 86.2052 5.23788 88.7958 5.60969C86.683 6.07662 84.5651 6.56995 82.4426 7.08954C80.1718 6.58405 77.8826 6.12216 75.5757 5.70361ZM84.6281 7.5909C86.9512 7.03909 89.2683 6.51902 91.579 6.03087C122.405 10.9381 150.161 23.4663 172.896 44.1906C219.755 86.9036 236.521 156.437 225.636 234.423C214.754 312.401 176.232 398.752 112.631 474.974C49.0295 551.197 -27.5786 602.821 -99.9998 624.69C-108.216 627.171 -116.377 629.269 -124.459 630.976C-127.388 630.51 -130.29 629.975 -133.163 629.37C-128.71 628.244 -124.238 627.002 -119.751 625.647C-47.1121 603.713 29.654 551.961 93.3585 475.615C157.063 399.268 195.675 312.747 206.587 234.562C217.497 156.385 200.719 86.4661 153.53 43.4515C133.859 25.5206 110.473 13.6962 84.6281 7.5909ZM82.4516 8.11678C108.925 14.0483 132.837 25.942 152.856 44.1906C199.715 86.9036 216.481 156.437 205.596 234.423C194.713 312.401 156.192 398.752 92.5907 474.974C28.9894 551.197 -47.6187 602.821 -120.04 624.69C-125.174 626.24 -130.286 627.641 -135.371 628.89C-138.005 628.3 -140.613 627.651 -143.195 626.943C-141.728 626.523 -140.259 626.091 -138.789 625.647C-66.1502 603.713 10.6159 551.961 74.3204 475.615C138.025 399.268 176.637 312.747 187.549 234.562C198.459 156.385 181.681 86.4661 134.492 43.4515C117.214 27.7024 97.0712 16.6641 74.9128 10.0742C77.4319 9.38512 79.9451 8.73256 82.4516 8.11678ZM72.9366 6.25894C75.3922 6.66949 77.8279 7.12874 80.243 7.63699C77.8624 8.23919 75.4762 8.87427 73.085 9.54203C70.8513 8.90548 68.5977 8.31361 66.3248 7.76617C68.5342 7.23504 70.7383 6.73259 72.9366 6.25894ZM64.18 8.29036C66.5533 8.83348 68.9059 9.42473 71.2368 10.0644C69.77 10.4839 68.3013 10.9157 66.831 11.3597C65.2896 11.8251 63.7462 12.304 62.2013 12.7963C59.9994 12.0103 57.7755 11.2707 55.5304 10.5773C58.4216 9.7669 61.3051 9.00447 64.18 8.29036ZM113.45 43.4515C98.7751 30.0751 82.0335 20.0971 63.7456 13.3565C64.8714 13.0028 65.9962 12.6563 67.1201 12.317C69.1101 11.716 71.097 11.1376 73.0803 10.5817C95.7203 17.0759 116.265 28.1906 133.818 44.1906C180.677 86.9036 197.442 156.437 186.558 234.423C175.675 312.401 137.153 398.752 73.5526 474.974C9.95129 551.197 -66.6568 602.821 -139.078 624.69C-141.068 625.291 -143.055 625.869 -145.038 626.425C-147.936 625.594 -150.799 624.687 -153.626 623.704C-82.8379 600.75 -8.61502 549.79 53.2783 475.615C116.983 399.268 155.595 312.747 166.507 234.562C177.417 156.385 160.639 86.4661 113.45 43.4515ZM62.1809 13.8525C80.8348 20.5558 97.8825 30.6147 112.776 44.1906C159.635 86.9036 176.4 156.437 165.516 234.423C154.633 312.401 116.111 398.752 52.5105 474.974C-9.64676 549.466 -84.2269 600.464 -155.181 623.155C-173.835 616.451 -190.883 606.392 -205.776 592.816C-252.635 550.103 -269.4 480.57 -258.516 402.584C-247.633 324.606 -209.111 238.255 -145.51 162.033C-83.3532 87.541 -8.77307 36.5425 62.1809 13.8525ZM53.749 11.0825C56.064 11.7736 58.3566 12.5136 60.6258 13.3027C-10.1622 36.2566 -84.385 87.2167 -146.278 161.392C-209.983 237.739 -248.595 324.26 -259.507 402.446C-270.417 480.622 -253.639 550.541 -206.45 593.555C-191.775 606.932 -175.033 616.91 -156.746 623.651C-157.871 624.004 -158.996 624.351 -160.12 624.69C-161.512 625.11 -162.901 625.519 -164.29 625.918C-186.254 619.36 -206.207 608.405 -223.317 592.809C-270.175 550.096 -286.941 480.563 -276.057 402.577C-265.174 324.599 -226.652 238.248 -163.051 162.026C-99.4498 85.8034 -22.8416 34.1786 49.5795 12.31C50.9709 11.8898 52.3608 11.4806 53.749 11.0825ZM-159.831 625.647C-158.29 625.182 -156.746 624.703 -155.201 624.211C-152.458 625.19 -149.681 626.097 -146.871 626.933C-149.145 627.555 -151.414 628.147 -153.678 628.71C-156.652 628.029 -159.594 627.273 -162.501 626.441C-161.611 626.181 -160.722 625.916 -159.831 625.647ZM-151.503 629.193C-149.354 628.643 -147.201 628.068 -145.043 627.465C-142.569 628.17 -140.07 628.82 -137.548 629.416C-139.502 629.88 -141.452 630.322 -143.397 630.741C-146.124 630.285 -148.827 629.769 -151.503 629.193ZM-140.701 631.171C-138.925 630.772 -137.145 630.354 -135.362 629.917C-132.661 630.519 -129.933 631.059 -127.18 631.537C-128.584 631.819 -129.984 632.089 -131.382 632.347C-134.517 632.03 -137.624 631.638 -140.701 631.171ZM117.317 0.884538C111.493 1.51727 105.612 2.36655 99.6847 3.42925C97.0646 3.19747 94.4255 3.01715 91.7687 2.88794C99.4589 1.79717 107.057 1.07679 114.541 0.733447C115.469 0.777552 116.394 0.827911 117.317 0.884538ZM103.493 0.502475C97.8441 1.02873 92.1393 1.76106 86.388 2.69658C81.6386 2.5891 76.8358 2.64141 71.9857 2.8516C82.6866 1.34489 93.2093 0.55587 103.493 0.502475ZM-136.676 634.282C-131.644 634.417 -126.55 634.371 -121.404 634.148C-132.463 635.706 -143.333 636.496 -153.945 636.5C-148.242 635.97 -142.483 635.229 -136.676 634.282ZM-179.362 635.938C-181.249 636.071 -183.129 636.181 -185.002 636.267C-186.234 636.208 -187.462 636.138 -188.686 636.058C-186.892 635.859 -185.094 635.639 -183.29 635.399C-181.986 635.592 -180.677 635.772 -179.362 635.938ZM-193.147 633.66C-191.057 634.089 -188.952 634.482 -186.832 634.839C-189.321 635.135 -191.801 635.393 -194.269 635.61C-196.43 635.406 -198.579 635.166 -200.713 634.891C-198.2 634.52 -195.678 634.109 -193.147 633.66ZM-204.332 635.399C-202.795 635.626 -201.251 635.836 -199.699 636.026C-201.321 636.131 -202.938 636.219 -204.55 636.289C-206.157 636.217 -207.757 636.126 -209.351 636.016C-207.682 635.828 -206.009 635.622 -204.332 635.399ZM-207.874 634.839C-210.189 635.115 -212.495 635.356 -214.792 635.564C-250.171 632.129 -281.985 619.195 -307.485 595.951C-354.344 553.238 -371.109 483.705 -360.225 405.719C-349.342 327.741 -310.82 241.39 -247.219 165.168C-183.618 88.9453 -107.01 37.3204 -34.5889 15.4518C-15.9878 9.83494 2.33255 6.1819 20.0832 4.57797C22.0817 4.77202 24.0688 4.99638 26.0441 5.25119C12.643 7.22984 -1.02405 10.3232 -14.8379 14.4945C-87.4766 36.4288 -164.243 88.1809 -227.947 164.527C-291.652 240.874 -330.264 327.395 -341.175 405.58C-352.086 483.757 -335.308 553.676 -288.119 596.69C-265.608 617.21 -238.233 629.732 -207.874 634.839ZM14.6416 4.12633C-1.50522 5.94494 -18.0831 9.42304 -34.878 14.4945C-107.517 36.4288 -184.283 88.1809 -247.987 164.527C-311.692 240.874 -350.304 327.395 -361.216 405.58C-372.126 483.757 -355.348 553.676 -308.159 596.69C-283.73 618.958 -253.572 631.809 -220.089 635.983C-221.588 636.084 -223.082 636.171 -224.572 636.243C-263.658 634.289 -298.818 621.206 -326.523 595.951C-373.382 553.238 -390.147 483.705 -379.263 405.719C-368.38 327.741 -329.858 241.39 -266.258 165.168C-202.656 88.9453 -126.048 37.3204 -53.627 15.4518C-31.5888 8.79705 -9.94467 4.89894 10.8247 3.89928C12.1012 3.96308 13.3736 4.03875 14.6416 4.12633ZM29.6631 4.74312C28.2416 4.53249 26.8139 4.33783 25.3801 4.15908C27.2209 4.03443 29.0553 3.9322 30.8828 3.85249C32.2798 3.91553 33.6718 3.99274 35.0587 4.08415C33.2654 4.28334 31.4668 4.50303 29.6631 4.74312ZM33.2051 5.30328C35.6947 5.00655 38.1739 4.74926 40.642 4.53166C42.8035 4.73607 44.9518 4.97585 47.0862 5.25119C44.5734 5.62221 42.0511 6.03243 39.5203 6.4816C37.4302 6.05254 35.325 5.65983 33.2051 5.30328ZM50.7051 4.74312C49.1682 4.51538 47.624 4.30631 46.0726 4.11583C47.5236 4.02167 48.9704 3.94148 50.4131 3.8753C52.0622 3.95371 53.7043 4.0519 55.3392 4.16994C53.7984 4.34592 52.2536 4.537 50.7051 4.74312ZM-327.197 596.69C-301.654 619.973 -269.85 632.96 -234.529 636.499C-278.048 636.633 -317.265 623.571 -347.565 595.951C-394.424 553.238 -411.19 483.705 -400.305 405.719C-389.422 327.741 -350.901 241.39 -287.3 165.168C-223.698 88.9453 -147.09 37.3204 -74.6691 15.4518C-48.877 7.6635 -23.6246 3.65093 0.317505 3.64144C-17.3102 5.28136 -35.4825 8.92819 -53.9161 14.4945C-126.555 36.4288 -203.321 88.1809 -267.025 164.527C-330.73 240.874 -369.342 327.395 -380.254 405.58C-391.164 483.757 -374.386 553.676 -327.197 596.69ZM50.3095 5.80436C48.0954 6.30123 45.8758 6.82703 43.6512 7.38161C43.1511 7.26627 42.6501 7.15307 42.1481 7.04199C44.8795 6.58346 47.6003 6.17082 50.3095 5.80436ZM29.6525 5.75257C32.0673 6.11234 34.4636 6.51845 36.8405 6.97116C26.7432 8.86825 16.5146 11.3811 6.20419 14.4945C-66.4344 36.4288 -143.201 88.1809 -206.905 164.527C-270.61 240.874 -309.221 327.395 -320.133 405.58C-331.044 483.757 -314.266 553.676 -267.077 596.69C-246.798 615.175 -222.573 627.17 -195.775 633.1C-198.636 633.58 -201.485 634.01 -204.321 634.389C-235.87 629.689 -264.266 617.08 -287.445 595.951C-334.304 553.238 -351.069 483.705 -340.185 405.719C-329.302 327.741 -290.78 241.39 -227.179 165.168C-163.578 88.9453 -86.97 37.3204 -14.5488 15.4518C0.41684 10.9327 15.2008 7.68482 29.6525 5.75257Z" stroke="white" stroke-opacity="0.7"/>
</svg>
