<svg width="715" height="637" viewBox="0 0 715 637" fill="none" xmlns="http://www.w3.org/2000/svg">
<path d="M598.3 471.839C534.698 548.062 458.09 599.687 385.669 621.555C361.237 628.933 337.289 632.922 314.481 633.331C332.016 631.678 350.088 628.041 368.418 622.505C441.056 600.571 517.822 548.819 581.527 472.473C645.232 396.126 683.843 309.605 694.755 231.42C705.666 153.243 688.888 83.3243 641.698 40.3097C616.225 17.0899 584.523 4.11022 549.317 0.529455C591.322 1.14604 629.146 14.2394 658.565 41.0557C705.424 83.7688 722.19 153.302 711.305 231.288C700.422 309.266 661.901 395.617 598.3 471.839ZM368.129 621.548C345.429 628.403 323.148 632.332 301.81 633.183C300.499 633.128 299.193 633.061 297.891 632.981C314.343 631.193 331.247 627.678 348.378 622.505C421.016 600.571 497.782 548.819 561.487 472.473C625.192 396.126 663.803 309.605 674.715 231.42C685.626 153.243 668.848 83.3243 621.658 40.3097C597.03 17.8599 566.579 4.98227 532.768 0.916696C534.329 0.822314 535.887 0.744164 537.439 0.682307C577.179 2.34899 612.934 15.4428 641.025 41.0487C687.883 83.7617 704.649 153.295 693.765 231.281C682.882 309.259 644.36 395.61 580.759 471.832C517.158 548.055 440.55 599.68 368.129 621.548ZM348.088 621.548C333.256 626.027 318.601 629.258 304.272 631.196C311.243 629.631 318.268 627.78 325.331 625.647C397.97 603.713 474.736 551.961 538.441 475.615C602.146 399.268 640.757 312.747 651.669 234.562C662.58 156.385 645.802 86.4661 598.612 43.4515C573.429 20.4965 542.159 7.54934 507.434 3.79744C514.065 2.70136 520.634 1.87629 527.125 1.32643C562.971 4.5885 595.205 17.5498 620.985 41.0487C667.843 83.7617 684.609 153.295 673.725 231.281C662.842 309.259 624.32 395.61 560.719 471.832C497.118 548.055 420.51 599.68 348.088 621.548ZM325.042 624.69C314.279 627.94 303.61 630.533 293.091 632.451C292.755 632.481 292.419 632.51 292.083 632.539C288.799 632.24 285.546 631.86 282.324 631.397C289.592 629.791 296.92 627.873 304.289 625.647C376.928 603.713 453.694 551.961 517.399 475.615C581.104 399.268 619.715 312.747 630.627 234.562C641.537 156.385 624.759 86.4661 577.57 43.4515C555.3 23.1521 528.271 10.6789 498.301 5.47004C500.114 5.10578 501.924 4.76131 503.729 4.43672C539.715 7.64604 572.075 20.6151 597.938 44.1906C644.797 86.9036 661.563 156.437 650.679 234.423C639.796 312.401 601.274 398.752 537.673 474.974C474.072 551.197 397.464 602.821 325.042 624.69ZM279.566 631.993C281.841 632.352 284.133 632.671 286.441 632.948C285.334 633.015 284.229 633.074 283.126 633.125C280.809 633.015 278.505 632.865 276.215 632.677C277.33 632.456 278.447 632.228 279.566 631.993ZM272.658 633.356C272.667 633.357 272.676 633.357 272.685 633.358C272.671 633.358 272.658 633.358 272.644 633.358C272.649 633.357 272.653 633.357 272.658 633.356ZM269.123 632.968C268.5 633.075 267.878 633.179 267.255 633.281C263.527 633.179 259.832 632.978 256.175 632.677C257.656 632.384 259.139 632.078 260.625 631.759C263.433 632.225 266.266 632.628 269.123 632.968ZM252.618 633.356C255.743 633.669 258.895 633.909 262.073 634.075C254.468 635.161 246.953 635.886 239.548 636.243C238.065 636.168 236.586 636.078 235.114 635.972C240.897 635.311 246.735 634.438 252.618 633.356ZM257.964 631.296C256.164 631.666 254.369 632.016 252.578 632.347C249.646 632.051 246.74 631.689 243.859 631.261C246.011 630.781 248.168 630.273 250.33 629.738C252.852 630.311 255.397 630.831 257.964 631.296ZM241.152 631.852C243.774 632.279 246.418 632.651 249.083 632.968C242.594 634.077 236.164 634.928 229.807 635.516C227.971 635.333 226.145 635.125 224.329 634.891C229.894 634.069 235.504 633.055 241.152 631.852ZM248.177 629.234C245.821 629.8 243.472 630.334 241.129 630.835C238.025 630.326 234.953 629.74 231.914 629.075C234.504 628.409 237.101 627.703 239.703 626.96C242.496 627.788 245.321 628.546 248.177 629.234ZM229.768 629.618C232.635 630.28 235.532 630.871 238.457 631.392C232.497 632.606 226.582 633.606 220.721 634.389C218.306 634.029 215.91 633.623 213.533 633.171C218.91 632.16 224.324 630.976 229.768 629.618ZM237.929 626.423C235.199 627.188 232.476 627.91 229.761 628.59C203.8 622.564 180.338 610.762 160.643 592.809C113.785 550.096 97.019 480.563 107.903 402.577C118.786 324.599 157.308 238.248 220.909 162.026C284.51 85.8034 361.118 34.1786 433.539 12.31C438.265 10.8829 442.973 9.58252 447.659 8.41035C450.455 9.0595 453.223 9.77568 455.96 10.5594C455.071 10.8193 454.181 11.0837 453.29 11.3527C380.652 33.2869 303.886 85.0391 240.181 161.385C176.476 237.732 137.865 324.253 126.953 402.439C116.042 480.615 132.82 550.534 180.01 593.548C196.855 608.904 216.424 619.781 237.929 626.423ZM445.505 7.92508C441.435 8.97206 437.349 10.1149 433.25 11.3527C360.612 33.2869 283.846 85.0391 220.141 161.385C156.436 237.732 117.825 324.253 106.913 402.439C96.0021 480.615 112.78 550.534 159.97 593.548C179.327 611.193 202.281 622.925 227.637 629.113C222.011 630.476 216.419 631.653 210.869 632.642C183.255 626.941 158.337 614.856 137.597 595.951C90.7385 553.238 73.9729 483.705 84.8571 405.719C95.74 327.741 134.262 241.39 197.863 165.168C261.464 88.9453 338.072 37.3204 410.493 15.4518C421.618 12.0926 432.642 9.43579 443.504 7.49964C444.173 7.6377 444.84 7.77952 445.505 7.92508ZM457.756 10.0402C455.126 9.26013 452.468 8.54265 449.783 7.88736C452.306 7.27589 454.823 6.7018 457.333 6.16529C460.252 6.64384 463.143 7.19102 466.005 7.80731C463.262 8.50814 460.512 9.25255 457.756 10.0402ZM468.172 7.26222C465.475 6.64911 462.752 6.09776 460.004 5.60772C461.647 5.2733 463.286 4.95508 464.922 4.65314C468.057 4.97003 471.164 5.36177 474.24 5.82892C472.222 6.28269 470.199 6.7605 468.172 7.26222ZM476.914 5.24125C474.566 4.85121 472.199 4.50547 469.816 4.20376C471.531 4.08281 473.241 3.98129 474.945 3.89928C477.097 4.00683 479.237 4.14813 481.365 4.32333C479.884 4.61616 478.4 4.92215 476.914 5.24125ZM484.922 3.64432C484.915 3.64369 484.909 3.64306 484.903 3.64244C484.913 3.64241 484.922 3.64238 484.932 3.64235C484.929 3.64301 484.925 3.64366 484.922 3.64432ZM490.458 3.69767C493.634 3.771 496.785 3.91615 499.91 4.13366C498.461 4.41462 497.009 4.70821 495.555 5.01439C493.206 4.64299 490.84 4.31558 488.457 4.03189C489.124 3.91775 489.792 3.80633 490.458 3.69767ZM479.576 5.70361C481.375 5.33399 483.171 4.98381 484.962 4.65314C487.594 4.91914 490.205 5.23788 492.796 5.60969C490.683 6.07662 488.565 6.56995 486.443 7.08954C484.172 6.58405 481.883 6.12216 479.576 5.70361ZM488.628 7.5909C490.951 7.03909 493.268 6.51902 495.579 6.03087C526.405 10.9381 554.161 23.4663 576.896 44.1906C623.755 86.9036 640.521 156.437 629.636 234.423C618.754 312.401 580.232 398.752 516.631 474.974C453.03 551.197 376.421 602.821 304 624.69C295.784 627.171 287.623 629.269 279.541 630.976C276.612 630.51 273.71 629.975 270.837 629.37C275.29 628.244 279.762 627.002 284.249 625.647C356.888 603.713 433.654 551.961 497.359 475.615C561.063 399.268 599.675 312.747 610.587 234.562C621.497 156.385 604.719 86.4661 557.53 43.4515C537.859 25.5206 514.473 13.6962 488.628 7.5909ZM486.452 8.11678C512.925 14.0483 536.837 25.942 556.856 44.1906C603.715 86.9036 620.481 156.437 609.596 234.423C598.713 312.401 560.192 398.752 496.591 474.974C432.989 551.197 356.381 602.821 283.96 624.69C278.826 626.24 273.714 627.641 268.629 628.89C265.995 628.3 263.387 627.651 260.805 626.943C262.272 626.523 263.741 626.091 265.211 625.647C337.85 603.713 414.616 551.961 478.32 475.615C542.025 399.268 580.637 312.747 591.549 234.562C602.459 156.385 585.681 86.4661 538.492 43.4515C521.214 27.7024 501.071 16.6641 478.913 10.0742C481.432 9.38512 483.945 8.73256 486.452 8.11678ZM476.937 6.25894C479.392 6.66949 481.828 7.12874 484.243 7.63699C481.862 8.23919 479.476 8.87427 477.085 9.54203C474.851 8.90548 472.598 8.31361 470.325 7.76617C472.534 7.23504 474.738 6.73259 476.937 6.25894ZM468.18 8.29036C470.553 8.83348 472.906 9.42473 475.237 10.0644C473.77 10.4839 472.301 10.9157 470.831 11.3597C469.29 11.8251 467.746 12.304 466.201 12.7963C463.999 12.0103 461.775 11.2707 459.53 10.5773C462.422 9.7669 465.305 9.00447 468.18 8.29036ZM517.45 43.4515C502.775 30.0751 486.033 20.0971 467.746 13.3565C468.871 13.0028 469.996 12.6563 471.12 12.317C473.11 11.716 475.097 11.1376 477.08 10.5817C499.72 17.0759 520.265 28.1906 537.818 44.1906C584.677 86.9036 601.442 156.437 590.558 234.423C579.675 312.401 541.153 398.752 477.553 474.974C413.951 551.197 337.343 602.821 264.922 624.69C262.932 625.291 260.945 625.869 258.962 626.425C256.064 625.594 253.201 624.687 250.374 623.704C321.162 600.75 395.385 549.79 457.278 475.615C520.983 399.268 559.595 312.747 570.507 234.562C581.417 156.385 564.639 86.4661 517.45 43.4515ZM466.181 13.8525C484.835 20.5558 501.883 30.6147 516.776 44.1906C563.635 86.9036 580.4 156.437 569.516 234.423C558.633 312.401 520.111 398.752 456.51 474.974C394.353 549.466 319.773 600.464 248.819 623.155C230.165 616.451 213.117 606.392 198.224 592.816C151.365 550.103 134.6 480.57 145.484 402.584C156.367 324.606 194.889 238.255 258.49 162.033C320.647 87.541 395.227 36.5425 466.181 13.8525ZM457.749 11.0825C460.064 11.7736 462.357 12.5136 464.626 13.3027C393.838 36.2566 319.615 87.2167 257.722 161.392C194.017 237.739 155.405 324.26 144.493 402.446C133.583 480.622 150.361 550.541 197.55 593.555C212.225 606.932 228.967 616.91 247.254 623.651C246.129 624.004 245.004 624.351 243.88 624.69C242.488 625.11 241.099 625.519 239.71 625.918C217.746 619.36 197.793 608.405 180.683 592.809C133.825 550.096 117.059 480.563 127.943 402.577C138.826 324.599 177.348 238.248 240.949 162.026C304.55 85.8034 381.158 34.1786 453.579 12.31C454.971 11.8898 456.361 11.4806 457.749 11.0825ZM244.169 625.647C245.71 625.182 247.254 624.703 248.799 624.211C251.542 625.19 254.319 626.097 257.129 626.933C254.855 627.555 252.586 628.147 250.322 628.71C247.348 628.029 244.406 627.273 241.499 626.441C242.389 626.181 243.278 625.916 244.169 625.647ZM252.497 629.193C254.646 628.643 256.799 628.068 258.957 627.465C261.431 628.17 263.93 628.82 266.452 629.416C264.498 629.88 262.548 630.322 260.603 630.741C257.876 630.285 255.173 629.769 252.497 629.193ZM263.299 631.171C265.075 630.772 266.855 630.354 268.638 629.917C271.339 630.519 274.067 631.059 276.82 631.537C275.416 631.819 274.016 632.089 272.618 632.347C269.483 632.03 266.376 631.638 263.299 631.171ZM521.317 0.884538C515.493 1.51727 509.612 2.36655 503.685 3.42925C501.065 3.19747 498.426 3.01715 495.769 2.88794C503.459 1.79717 511.057 1.07679 518.541 0.733447C519.469 0.777552 520.394 0.827911 521.317 0.884538ZM507.493 0.502475C501.844 1.02873 496.139 1.76106 490.388 2.69658C485.639 2.5891 480.836 2.64141 475.986 2.8516C486.687 1.34489 497.209 0.55587 507.493 0.502475ZM267.324 634.282C272.356 634.417 277.45 634.371 282.596 634.148C271.537 635.706 260.667 636.496 250.055 636.5C255.758 635.97 261.517 635.229 267.324 634.282ZM224.638 635.938C222.751 636.071 220.871 636.181 218.998 636.267C217.766 636.208 216.538 636.138 215.314 636.058C217.108 635.859 218.906 635.639 220.71 635.399C222.014 635.592 223.323 635.772 224.638 635.938ZM210.853 633.66C212.943 634.089 215.048 634.482 217.168 634.839C214.679 635.135 212.199 635.393 209.731 635.61C207.57 635.406 205.421 635.166 203.287 634.891C205.8 634.52 208.322 634.109 210.853 633.66ZM199.668 635.399C201.205 635.626 202.749 635.836 204.301 636.026C202.679 636.131 201.062 636.219 199.45 636.289C197.843 636.217 196.243 636.126 194.649 636.016C196.318 635.828 197.991 635.622 199.668 635.399ZM196.126 634.839C193.811 635.115 191.505 635.356 189.208 635.564C153.829 632.129 122.015 619.195 96.5149 595.951C49.6563 553.238 32.8907 483.705 43.7749 405.719C54.6578 327.741 93.1797 241.39 156.781 165.168C220.382 88.9453 296.99 37.3204 369.411 15.4518C388.012 9.83494 406.333 6.1819 424.083 4.57797C426.082 4.77202 428.069 4.99638 430.044 5.25119C416.643 7.22984 402.976 10.3232 389.162 14.4945C316.523 36.4288 239.757 88.1809 176.053 164.527C112.348 240.874 73.7365 327.395 62.8246 405.58C51.9139 483.757 68.6919 553.676 115.881 596.69C138.392 617.21 165.767 629.732 196.126 634.839ZM418.642 4.12633C402.495 5.94494 385.917 9.42304 369.122 14.4945C296.483 36.4288 219.717 88.1809 156.013 164.527C92.3078 240.874 53.6964 327.395 42.7845 405.58C31.8738 483.757 48.6518 553.676 95.8413 596.69C120.27 618.958 150.428 631.809 183.911 635.983C182.412 636.084 180.918 636.171 179.428 636.243C140.342 634.289 105.182 621.206 77.4768 595.951C30.6182 553.238 13.8526 483.705 24.7368 405.719C35.6197 327.741 74.1416 241.39 137.742 165.168C201.344 88.9453 277.952 37.3204 350.373 15.4518C372.411 8.79705 394.055 4.89894 414.825 3.89928C416.101 3.96308 417.374 4.03875 418.642 4.12633ZM433.663 4.74312C432.242 4.53249 430.814 4.33783 429.38 4.15908C431.221 4.03443 433.055 3.9322 434.883 3.85249C436.28 3.91553 437.672 3.99274 439.059 4.08415C437.265 4.28334 435.467 4.50303 433.663 4.74312ZM437.205 5.30328C439.695 5.00655 442.174 4.74926 444.642 4.53166C446.804 4.73607 448.952 4.97585 451.086 5.25119C448.573 5.62221 446.051 6.03243 443.52 6.4816C441.43 6.05254 439.325 5.65983 437.205 5.30328ZM454.705 4.74312C453.168 4.51538 451.624 4.30631 450.073 4.11583C451.524 4.02167 452.97 3.94148 454.413 3.8753C456.062 3.95371 457.704 4.0519 459.339 4.16994C457.798 4.34592 456.254 4.537 454.705 4.74312ZM76.8032 596.69C102.346 619.973 134.15 632.96 169.471 636.499C125.952 636.633 86.7354 623.571 56.4347 595.951C9.57612 553.238 -7.1895 483.705 3.69467 405.719C14.5776 327.741 53.0995 241.39 116.7 165.168C180.302 88.9453 256.91 37.3204 329.331 15.4518C355.123 7.6635 380.375 3.65093 404.318 3.64144C386.69 5.28136 368.518 8.92819 350.084 14.4945C277.445 36.4288 200.679 88.1809 136.975 164.527C73.2697 240.874 34.6583 327.395 23.7464 405.58C12.8357 483.757 29.6137 553.676 76.8032 596.69ZM454.31 5.80436C452.095 6.30123 449.876 6.82703 447.651 7.38161C447.151 7.26627 446.65 7.15307 446.148 7.04199C448.88 6.58346 451.6 6.17082 454.31 5.80436ZM433.652 5.75257C436.067 6.11234 438.464 6.51845 440.841 6.97116C430.743 8.86825 420.515 11.3811 410.204 14.4945C337.566 36.4288 260.799 88.1809 197.095 164.527C133.39 240.874 94.7786 327.395 83.8667 405.58C72.956 483.757 89.734 553.676 136.923 596.69C157.202 615.175 181.427 627.17 208.225 633.1C205.364 633.58 202.515 634.01 199.679 634.389C168.13 629.689 139.734 617.08 116.555 595.951C69.6964 553.238 52.9308 483.705 63.815 405.719C74.6979 327.741 113.22 241.39 176.821 165.168C240.422 88.9453 317.03 37.3204 389.451 15.4518C404.417 10.9327 419.201 7.68482 433.652 5.75257Z" stroke="white" stroke-opacity="0.7"/>
</svg>
