<svg width="234" height="233" viewBox="0 0 234 233" fill="none" xmlns="http://www.w3.org/2000/svg">
<path d="M182.733 172.363L138.231 189.216C136.467 180.475 128.701 174.244 119.758 174.453C112.327 174.453 103.595 172.613 78.2791 163.162C64.7606 160.235 50.8222 159.859 37.1777 162.033C37.0098 159.148 34.6168 156.848 31.678 156.848H5.6485C2.58374 156.848 0.106802 159.357 0.0648193 162.41V225.891C0.0648193 228.944 2.58374 231.411 5.6485 231.453H31.3001C33.1054 231.453 34.7847 230.533 35.7503 229.027C52.9214 231.704 70.3023 233 87.6832 233C113.713 233 139.994 229.905 155.654 221.458C175.47 210.836 194.068 199.294 194.026 199.294C201.751 196.618 205.865 188.212 203.178 180.475C203.136 180.308 203.052 180.141 203.01 180.015C199.526 172.363 190.499 168.933 182.817 172.363C182.817 172.363 182.817 172.363 182.775 172.363H182.733ZM25.7163 219.869H10.8964V168.139H25.7163V219.869ZM188.946 189.341C188.946 189.341 170.306 200.632 150.574 211.505C126.769 224.385 71.0161 223.423 36.8419 217.778V172.99C49.1429 170.899 61.6958 171.066 73.9548 173.45C100.74 183.445 110.228 185.368 119.087 185.368C122.655 185.285 125.804 187.794 126.517 191.265V191.641H89.1106C86.0459 191.641 83.527 194.108 83.527 197.203C83.527 200.298 86.0039 202.765 89.1106 202.765H132.731C133.403 202.765 134.074 202.639 134.746 202.389L186.679 182.734C190.08 181.479 192.095 182.734 192.767 184.281C193.438 185.828 192.305 188.045 188.988 189.676V189.383L188.946 189.341ZM228.2 1.53207H202.549C200.743 1.53207 199.064 2.45208 198.098 3.95756C163.211 -1.64618 104.854 -2.98438 77.9852 11.3595C58.1692 21.9815 39.5707 33.5236 39.6127 33.5236C31.8878 36.3255 27.9415 44.7729 30.7123 52.4676C30.7543 52.593 30.7963 52.7185 30.8383 52.8021C33.1893 58.1968 38.5631 61.7095 44.4827 61.6677C46.7498 61.6677 48.9749 61.2496 51.0741 60.4132L95.576 43.5601C97.3393 52.3003 105.106 58.5313 114.049 58.3222C121.479 58.3222 130.212 60.1622 155.528 69.6133C162.287 71.3697 169.256 72.1643 176.225 71.997C183.11 71.997 189.954 71.4952 196.797 70.5752C196.965 73.4607 199.358 75.7607 202.297 75.7607H228.2C231.265 75.7607 233.742 73.2516 233.784 70.1988V7.01035C233.784 3.95756 231.265 1.49025 228.2 1.44843V1.53207ZM159.558 59.3259C132.773 49.3311 123.285 47.4075 114.426 47.4075C110.858 47.4911 107.709 44.982 106.995 41.511H145.074C148.139 41.511 150.658 39.0437 150.658 35.9491C150.658 32.8545 148.181 30.3872 145.074 30.3872H101.076C100.404 30.2617 99.7323 30.2617 99.0606 30.3872L47.1277 49.833C43.7271 51.0875 41.712 49.833 41.0402 48.2857C40.3685 46.7384 41.502 44.522 44.8187 42.891C44.8187 42.891 63.459 31.5999 83.191 20.727C106.995 7.93036 162.749 8.80857 196.923 14.5378V59.7859C184.538 61.8768 171.859 61.7514 159.516 59.3259H159.558ZM222.617 65.0133H207.796V12.9068H222.617V65.0133Z" fill="#009493" fill-opacity="0.07"/>
<path d="M154.226 99.8487H135.544V81.2393C135.544 76.8483 131.975 73.2519 127.525 73.2519H106.198C101.79 73.2519 98.179 76.8065 98.179 81.2393V99.8487H79.4965C75.0883 99.8487 71.4779 103.403 71.4779 107.836V129.08C71.4779 133.471 75.0463 137.068 79.4965 137.068H98.179V155.677C98.179 160.068 101.748 163.664 106.198 163.664H127.525C131.933 163.664 135.544 160.11 135.544 155.677V137.068H154.226C158.634 137.068 162.245 133.513 162.245 129.08V107.836C162.245 103.445 158.676 99.8487 154.226 99.8487ZM156.913 129.08C156.913 130.544 155.738 131.757 154.226 131.757H135.544C132.605 131.757 130.212 134.14 130.212 137.068V155.677C130.212 157.141 129.036 158.353 127.525 158.353H106.198C104.728 158.353 103.511 157.183 103.511 155.677V137.068C103.511 134.14 101.118 131.757 98.179 131.757H79.4965C78.0271 131.757 76.8097 130.586 76.8097 129.08V107.836C76.8097 106.372 77.9851 105.16 79.4965 105.16H98.179C101.118 105.16 103.511 102.776 103.511 99.8487V81.2393C103.511 79.7756 104.686 78.5629 106.198 78.5629H127.525C128.994 78.5629 130.212 79.7338 130.212 81.2393V99.8487C130.212 102.776 132.605 105.16 135.544 105.16H154.226C155.696 105.16 156.913 106.331 156.913 107.836V129.08Z" fill="#009493" fill-opacity="0.07"/>
</svg>
